<svg xmlns="http://www.w3.org/2000/svg" viewBox="0 0 236 44" fill="none">
  <defs>
    <linearGradient id="tmdb-gradient" x1="10" y1="22" x2="226" y2="22" gradientUnits="userSpaceOnUse">
      <stop offset="0" stop-color="#90CEA1" />
      <stop offset="0.56" stop-color="#3CBEC9" />
      <stop offset="1" stop-color="#00B3E5" />
    </linearGradient>
  </defs>
  <rect x="2" y="2" width="232" height="40" rx="20" fill="#08131B" />
  <rect x="126" y="7" width="98" height="30" rx="15" fill="#00B3E5" />
  <rect x="2.75" y="2.75" width="230.5" height="38.5" rx="19.25" stroke="url(#tmdb-gradient)" stroke-opacity="0.32" stroke-width="1.5" />
  <path d="M25.8 13.4H42.4V17.1H36V31H32.2V17.1H25.8V13.4ZM45.7 13.4H50.3L55.4 26.8L60.6 13.4H65.3V31H61.6V18.7L56.9 31H53.8L49.2 18.7V31H45.7V13.4ZM71.7 13.4H79.1C81.8 13.4 83.9 14.2 85.4 15.7C86.9 17.2 87.7 19.2 87.7 21.9C87.7 24.6 86.9 26.7 85.3 28.4C83.7 30.1 81.5 31 78.8 31H71.7V13.4ZM75.5 16.8V27.6H78.7C80.4 27.6 81.8 27.1 82.8 26.1C83.8 25 84.3 23.6 84.3 21.9C84.3 20.2 83.8 18.9 82.8 18C81.8 17.2 80.5 16.8 78.8 16.8H75.5ZM92.5 13.4H101.1C102.9 13.4 104.3 13.8 105.4 14.7C106.4 15.5 106.9 16.7 106.9 18.1C106.9 19.8 106.2 21 104.7 21.8C106.8 22.5 107.8 24 107.8 26.2C107.8 27.7 107.3 28.9 106.2 29.8C105.1 30.6 103.6 31 101.7 31H92.5V13.4ZM96.2 16.6V20.4H100.8C101.7 20.4 102.4 20.2 102.9 19.9C103.4 19.5 103.6 19 103.6 18.2C103.6 17.1 102.8 16.6 101 16.6H96.2ZM96.2 23.4V27.8H101.4C102.4 27.8 103.2 27.6 103.7 27.2C104.3 26.8 104.5 26.2 104.5 25.4C104.5 24.7 104.2 24.1 103.7 23.8C103.1 23.5 102.3 23.4 101.2 23.4H96.2Z" fill="url(#tmdb-gradient)" />
</svg>
